<?xml version="1.0" encoding="UTF-8" standalone="no"?>
<!DOCTYPE svg PUBLIC "-//W3C//DTD SVG 1.1//EN"
 "http://www.w3.org/Graphics/SVG/1.1/DTD/svg11.dtd">
<!-- Generated by graphviz version 2.50.0 (20211204.2007)
 -->
<!-- Pages: 1 -->
<svg width="216pt" height="380pt"
 viewBox="0.00 0.00 216.00 380.00" xmlns="http://www.w3.org/2000/svg" xmlns:xlink="http://www.w3.org/1999/xlink">
<g id="graph0" class="graph" transform="scale(1 1) rotate(0) translate(4 376)">
<polygon fill="white" stroke="transparent" points="-4,4 -4,-376 212,-376 212,4 -4,4"/>
<!-- 140260902845712 -->
<g id="node1" class="node">
<title>140260902845712</title>
<polygon fill="#caff70" stroke="black" points="95,-31 24,-31 24,0 95,0 95,-31"/>
<text text-anchor="middle" x="59.5" y="-7" font-family="monospace" font-size="10.00"> (16, 16)</text>
</g>
<!-- 140260907333808 -->
<g id="node2" class="node">
<title>140260907333808</title>
<polygon fill="lightgrey" stroke="black" points="196,-185 11,-185 11,-67 196,-67 196,-185"/>
<text text-anchor="middle" x="103.5" y="-173" font-family="monospace" font-size="10.00">AddmmBackward0</text>
<text text-anchor="middle" x="103.5" y="-162" font-family="monospace" font-size="10.00">&#45;&#45;&#45;&#45;&#45;&#45;&#45;&#45;&#45;&#45;&#45;&#45;&#45;&#45;&#45;&#45;&#45;&#45;&#45;&#45;&#45;&#45;&#45;&#45;&#45;&#45;&#45;&#45;</text>
<text text-anchor="middle" x="103.5" y="-151" font-family="monospace" font-size="10.00">alpha &#160;&#160;&#160;&#160;&#160;&#160;: &#160;&#160;&#160;&#160;&#160;&#160;&#160;&#160;&#160;&#160;&#160;&#160;&#160;1</text>
<text text-anchor="middle" x="103.5" y="-140" font-family="monospace" font-size="10.00">beta &#160;&#160;&#160;&#160;&#160;&#160;&#160;: &#160;&#160;&#160;&#160;&#160;&#160;&#160;&#160;&#160;&#160;&#160;&#160;&#160;1</text>
<text text-anchor="middle" x="103.5" y="-129" font-family="monospace" font-size="10.00">mat1 &#160;&#160;&#160;&#160;&#160;&#160;&#160;: [saved tensor]</text>
<text text-anchor="middle" x="103.5" y="-118" font-family="monospace" font-size="10.00">mat1_sizes &#160;: &#160;&#160;&#160;&#160;&#160;&#160;(16, 32)</text>
<text text-anchor="middle" x="103.5" y="-107" font-family="monospace" font-size="10.00">mat1_strides: &#160;&#160;&#160;&#160;&#160;&#160;&#160;&#160;&#160;&#160;&#160;&#160;()</text>
<text text-anchor="middle" x="103.5" y="-96" font-family="monospace" font-size="10.00">mat2 &#160;&#160;&#160;&#160;&#160;&#160;&#160;: &#160;&#160;&#160;&#160;&#160;&#160;&#160;&#160;&#160;&#160;None</text>
<text text-anchor="middle" x="103.5" y="-85" font-family="monospace" font-size="10.00">mat2_sizes &#160;: &#160;&#160;&#160;&#160;&#160;&#160;(32, 16)</text>
<text text-anchor="middle" x="103.5" y="-74" font-family="monospace" font-size="10.00">mat2_strides: &#160;&#160;&#160;&#160;&#160;&#160;&#160;(1, 32)</text>
</g>
<!-- 140260907333808&#45;&gt;140260902845712 -->
<g id="edge7" class="edge">
<title>140260907333808&#45;&gt;140260902845712</title>
<path fill="none" stroke="black" d="M79.95,-66.94C76.16,-57.59 72.43,-48.39 69.21,-40.46"/>
<polygon fill="black" stroke="black" points="72.45,-39.13 65.45,-31.18 65.97,-41.76 72.45,-39.13"/>
</g>
<!-- 140260902842432 -->
<g id="node3" class="node">
<title>140260902842432</title>
<polygon fill="orange" stroke="black" points="184,-30.5 113,-30.5 113,-0.5 184,-0.5 184,-30.5"/>
<text text-anchor="middle" x="148.5" y="-18.5" font-family="monospace" font-size="10.00">mat1</text>
<text text-anchor="middle" x="148.5" y="-7.5" font-family="monospace" font-size="10.00"> (16, 32)</text>
</g>
<!-- 140260907333808&#45;&gt;140260902842432 -->
<g id="edge1" class="edge">
<title>140260907333808&#45;&gt;140260902842432</title>
<path fill="none" stroke="black" d="M127.58,-66.94C133.18,-53.44 138.65,-40.25 142.59,-30.75"/>
</g>
<!-- 140260902766672 -->
<g id="node4" class="node">
<title>140260902766672</title>
<polygon fill="lightgrey" stroke="black" points="101,-240 0,-240 0,-221 101,-221 101,-240"/>
<text text-anchor="middle" x="50.5" y="-228" font-family="monospace" font-size="10.00">AccumulateGrad</text>
</g>
<!-- 140260902766672&#45;&gt;140260907333808 -->
<g id="edge2" class="edge">
<title>140260902766672&#45;&gt;140260907333808</title>
<path fill="none" stroke="black" d="M55.02,-220.76C58.38,-214.26 63.32,-204.71 68.77,-194.16"/>
<polygon fill="black" stroke="black" points="71.97,-195.6 73.45,-185.11 65.75,-192.39 71.97,-195.6"/>
</g>
<!-- 140260705089312 -->
<g id="node5" class="node">
<title>140260705089312</title>
<polygon fill="lightblue" stroke="black" points="77.5,-306 23.5,-306 23.5,-276 77.5,-276 77.5,-306"/>
<text text-anchor="middle" x="50.5" y="-294" font-family="monospace" font-size="10.00">bias</text>
<text text-anchor="middle" x="50.5" y="-283" font-family="monospace" font-size="10.00"> (16)</text>
</g>
<!-- 140260705089312&#45;&gt;140260902766672 -->
<g id="edge3" class="edge">
<title>140260705089312&#45;&gt;140260902766672</title>
<path fill="none" stroke="black" d="M50.5,-275.84C50.5,-268.21 50.5,-258.7 50.5,-250.45"/>
<polygon fill="black" stroke="black" points="54,-250.27 50.5,-240.27 47,-250.27 54,-250.27"/>
</g>
<!-- 140260907334624 -->
<g id="node6" class="node">
<title>140260907334624</title>
<polygon fill="lightgrey" stroke="black" points="196,-240 119,-240 119,-221 196,-221 196,-240"/>
<text text-anchor="middle" x="157.5" y="-228" font-family="monospace" font-size="10.00">TBackward0</text>
</g>
<!-- 140260907334624&#45;&gt;140260907333808 -->
<g id="edge4" class="edge">
<title>140260907334624&#45;&gt;140260907333808</title>
<path fill="none" stroke="black" d="M152.9,-220.76C149.47,-214.26 144.44,-204.71 138.88,-194.16"/>
<polygon fill="black" stroke="black" points="141.87,-192.33 134.11,-185.11 135.68,-195.59 141.87,-192.33"/>
</g>
<!-- 140260908191600 -->
<g id="node7" class="node">
<title>140260908191600</title>
<polygon fill="lightgrey" stroke="black" points="208,-300.5 107,-300.5 107,-281.5 208,-281.5 208,-300.5"/>
<text text-anchor="middle" x="157.5" y="-288.5" font-family="monospace" font-size="10.00">AccumulateGrad</text>
</g>
<!-- 140260908191600&#45;&gt;140260907334624 -->
<g id="edge5" class="edge">
<title>140260908191600&#45;&gt;140260907334624</title>
<path fill="none" stroke="black" d="M157.5,-281.37C157.5,-273.25 157.5,-260.81 157.5,-250.39"/>
<polygon fill="black" stroke="black" points="161,-250.17 157.5,-240.17 154,-250.17 161,-250.17"/>
</g>
<!-- 140260702944528 -->
<g id="node8" class="node">
<title>140260702944528</title>
<polygon fill="lightblue" stroke="black" points="193,-372 122,-372 122,-342 193,-342 193,-372"/>
<text text-anchor="middle" x="157.5" y="-360" font-family="monospace" font-size="10.00">weight</text>
<text text-anchor="middle" x="157.5" y="-349" font-family="monospace" font-size="10.00"> (16, 32)</text>
</g>
<!-- 140260702944528&#45;&gt;140260908191600 -->
<g id="edge6" class="edge">
<title>140260702944528&#45;&gt;140260908191600</title>
<path fill="none" stroke="black" d="M157.5,-341.8C157.5,-332.7 157.5,-320.79 157.5,-310.9"/>
<polygon fill="black" stroke="black" points="161,-310.84 157.5,-300.84 154,-310.84 161,-310.84"/>
</g>
</g>
</svg>
